<mxfile host="app.diagrams.net" modified="2023-12-14T10:25:36.114Z" agent="Mozilla/5.0 (Macintosh; Intel Mac OS X 10_15_7) AppleWebKit/537.36 (KHTML, like Gecko) Chrome/120.0.0.0 Safari/537.36" version="22.1.8" etag="cynKBy9w2ZBpIAn0rmpf" type="github">
  <diagram name="第 1 页" id="L35yC__31-1goTMCu9W_">
    <mxGraphModel>
      <root>
        <mxCell id="0" />
        <mxCell id="1" parent="0" />
      </root>
    </mxGraphModel>
  </diagram>
</mxfile>
